<?xml version="1.0" encoding="UTF-8" standalone="no"?>
<svg width="260px" height="123px" viewBox="0 0 260 123" version="1.1" xmlns="http://www.w3.org/2000/svg" xmlns:xlink="http://www.w3.org/1999/xlink">
    <!-- Generator: Sketch 3.7.1 (28215) - http://www.bohemiancoding.com/sketch -->
    <title>logotype</title>
    <desc>Created with Sketch.</desc>
    <defs></defs>
    <g id="Page-1" stroke="none" stroke-width="1" fill="none" fill-rule="evenodd">
        <g id="Drupal-Restaurant-Logotype_" transform="translate(-207.000000, -132.000000)" fill="#796B4F">
            <g id="Group">
                <g id="logotype" transform="translate(135.000000, 132.000000)">
                    <g id="Group" transform="translate(167.000000, 0.000000)">
                        <path d="M66.288,41.871 C66.288,25.65 53.514,12.356 37.498,11.515 C39.889,10.816 41.643,8.609 41.643,5.994 C41.643,2.821 39.06,0.239 35.886,0.239 C32.713,0.239 30.133,2.821 30.133,5.994 C30.133,8.609 31.886,10.816 34.278,11.515 C18.261,12.356 5.488,25.65 5.488,41.871 L5.488,43.615 L66.288,43.615 L66.288,41.871 L66.288,41.871 Z M33.62,5.995 C33.62,4.744 34.637,3.727 35.886,3.727 C37.137,3.727 38.156,4.743 38.156,5.995 C38.156,7.245 37.137,8.263 35.886,8.263 C34.637,8.263 33.62,7.245 33.62,5.995 L33.62,5.995 Z M9.03,40.128 C9.933,25.966 21.617,14.959 35.886,14.959 C50.159,14.959 61.842,25.966 62.744,40.128 L9.03,40.128 L9.03,40.128 Z" id="Shape"></path>
                        <path d="M68.476,46.297 L3.3,46.297 C1.967,46.297 0.879,47.11 0.879,48.102 C0.879,49.097 1.967,49.91 3.3,49.91 L68.475,49.91 C69.807,49.91 70.897,49.097 70.897,48.102 C70.897,47.11 69.808,46.297 68.476,46.297 L68.476,46.297 Z" id="Shape"></path>
                        <path d="M41.383,56.772 C38.62,59.263 38.404,63.534 40.895,66.294 C43.386,69.054 47.659,69.273 50.419,66.78 C52.924,64.518 55.688,58.277 53.034,55.337 C50.378,52.396 43.888,54.509 41.383,56.772 L41.383,56.772 Z M48.979,65.188 C47.098,66.886 44.186,66.736 42.486,64.856 C40.788,62.975 40.937,60.062 42.819,58.364 C44.806,56.571 49.912,55.083 51.438,56.774 C52.968,58.467 50.964,63.395 48.979,65.188 L48.979,65.188 Z" id="Shape"></path>
                        <path d="M37.395,70.863 L39.791,68.717 C40.329,68.232 40.447,67.476 40.052,67.038 C39.656,66.6 38.892,66.64 38.354,67.125 L35.787,69.424 L32.837,66.783 C32.299,66.298 31.536,66.259 31.141,66.697 C30.746,67.134 30.862,67.89 31.4,68.375 L34.178,70.863 L28.044,76.357 C27.508,76.842 27.391,77.598 27.787,78.035 C28.18,78.473 28.943,78.434 29.483,77.948 L35.787,72.302 L42.092,77.948 C42.63,78.432 43.394,78.471 43.788,78.034 C44.182,77.597 44.067,76.841 43.529,76.355 L37.395,70.863 L37.395,70.863 Z" id="Shape"></path>
                        <path d="M30.749,65.385 C32.333,63.629 32.194,60.91 30.438,59.324 L26.187,55.488 L25.412,54.787 L24.856,54.287 C24.32,53.803 23.557,53.763 23.16,54.202 C22.765,54.64 22.883,55.394 23.419,55.88 L23.973,56.38 L23.973,56.382 L28.999,60.92 C29.776,61.622 29.92,62.795 29.376,63.658 L23.557,58.404 L22.78,57.704 L22.226,57.204 C21.688,56.719 20.925,56.68 20.528,57.119 C20.133,57.557 20.251,58.312 20.787,58.797 L21.343,59.297 L22.118,59.998 L27.939,65.251 C27.132,65.879 25.952,65.857 25.175,65.156 L20.149,60.619 L20.147,60.62 L19.593,60.119 C19.055,59.634 18.292,59.595 17.897,60.034 C17.502,60.472 17.618,61.228 18.156,61.712 L18.71,62.212 L19.487,62.914 L23.738,66.75 C25.494,68.336 28.214,68.197 29.799,66.439 L30.749,65.385 L30.749,65.385 Z" id="Shape"></path>
                    </g>
                    <g id="Group" transform="translate(72.000000, 89.000000)">
                        <path d="M170.063,10.664 L170.012,10.664 C170.012,10.664 169.646,12.306 169.326,13.261 L167.834,17.62 L172.242,17.62 L170.748,13.261 C170.43,12.306 170.063,10.664 170.063,10.664 L170.063,10.664 Z" id="Shape"></path>
                        <path d="M114.327,10.664 L114.278,10.664 C114.278,10.664 113.91,12.306 113.592,13.261 L112.098,17.62 L116.506,17.62 L115.012,13.261 C114.694,12.306 114.327,10.664 114.327,10.664 L114.327,10.664 Z" id="Shape"></path>
                        <path d="M49.481,10.052 L46.885,10.052 L46.885,15.489 L49.432,15.489 C51.048,15.489 52.004,14.486 52.004,12.747 C52.004,11.032 51.048,10.052 49.481,10.052 L49.481,10.052 Z" id="Shape"></path>
                        <path d="M259.475,0.075 L0.302,0.075 L10.844,16.911 L0.302,33.747 L259.475,33.747 L248.932,16.911 L259.475,0.075 L259.475,0.075 Z M21.729,19.972 C20.039,19.972 18.668,18.602 18.668,16.911 C18.668,15.22 20.039,13.849 21.729,13.849 C23.419,13.849 24.79,15.219 24.79,16.911 C24.791,18.602 23.419,19.972 21.729,19.972 L21.729,19.972 Z M56.486,24.722 L54.796,24.722 C53.498,24.722 52.935,24.527 52.371,23.425 L50.142,19.04 C49.774,18.354 49.407,18.233 48.501,18.233 L46.885,18.233 L46.885,24.721 L43.677,24.721 L43.677,10.051 L42.085,10.051 L42.085,7.333 L49.873,7.333 C53.057,7.333 55.286,9.292 55.286,12.574 C55.286,15.709 53.131,17.007 52.395,17.153 L52.395,17.202 C52.395,17.202 52.934,17.448 53.252,18.085 L54.942,21.439 C55.212,21.954 55.628,22.002 56.167,22.002 L56.485,22.002 L56.485,24.722 L56.486,24.722 Z M72.33,23.057 C72.33,24.233 71.816,24.722 70.664,24.722 L62.778,24.722 C61.603,24.722 61.112,24.233 61.112,23.057 L61.112,10.052 L59.52,10.052 L59.52,7.334 L70.026,7.334 C71.177,7.334 71.692,7.848 71.692,9 L71.692,11.645 L68.777,11.645 L68.777,10.591 C68.777,10.248 68.581,10.052 68.238,10.052 L64.32,10.052 L64.32,14.608 L69.953,14.608 L69.953,17.327 L64.32,17.327 L64.32,21.467 C64.32,21.81 64.516,22.005 64.859,22.005 L68.876,22.005 C69.219,22.005 69.415,21.81 69.415,21.467 L69.415,20.413 L72.33,20.413 L72.33,23.057 L72.33,23.057 Z M81.561,25.017 C77.716,25.017 75.585,22.323 75.585,22.323 L77.398,20.069 C77.398,20.069 79.186,22.127 81.61,22.127 C82.933,22.127 84.109,21.417 84.109,20.069 C84.109,17.106 75.929,17.35 75.929,11.938 C75.929,9.122 78.378,7.041 81.734,7.041 C83.767,7.041 86.901,7.996 86.901,10.47 L86.901,12.086 L84.011,12.086 L84.011,11.303 C84.011,10.493 82.86,9.955 81.709,9.955 C80.239,9.955 79.162,10.715 79.162,11.816 C79.162,14.78 87.342,14.192 87.342,19.898 C87.341,22.665 85.21,25.017 81.561,25.017 L81.561,25.017 Z M105.83,11.645 L103.013,11.645 L103.013,10.591 C103.013,10.248 102.817,10.052 102.474,10.052 L99.805,10.052 L99.805,24.722 L96.597,24.722 L96.597,10.052 L93.928,10.052 C93.585,10.052 93.389,10.248 93.389,10.591 L93.389,11.645 L90.573,11.645 L90.573,8.902 C90.573,7.751 90.965,7.335 92.14,7.335 L104.264,7.335 C105.439,7.335 105.831,7.751 105.831,8.902 L105.831,11.645 L105.83,11.645 Z M122.287,24.722 L120.376,24.722 C119.152,24.722 118.711,24.405 118.319,23.302 L117.241,20.266 L111.364,20.266 L110.286,23.302 C109.894,24.405 109.478,24.722 108.253,24.722 L106.318,24.722 L106.318,22.004 L106.71,22.004 C107.127,22.004 107.322,21.906 107.47,21.466 L112.637,7.334 L115.992,7.334 L121.135,21.466 C121.282,21.906 121.478,22.004 121.894,22.004 L122.286,22.004 L122.286,24.722 L122.287,24.722 Z M141.511,10.052 L140.458,10.052 C140.115,10.052 139.919,10.248 139.919,10.591 L139.919,18.527 C139.919,22.372 137.201,25.017 133.111,25.017 C128.972,25.017 126.253,22.371 126.253,18.527 L126.253,10.591 C126.253,10.248 126.057,10.052 125.714,10.052 L124.661,10.052 L124.661,7.334 L127.796,7.334 C128.972,7.334 129.462,7.848 129.462,9 L129.462,18.429 C129.462,20.706 130.907,22.029 133.087,22.029 C135.267,22.029 136.712,20.707 136.712,18.405 L136.712,9 C136.712,7.848 137.202,7.334 138.378,7.334 L141.513,7.334 L141.513,10.052 L141.511,10.052 Z M159.337,24.722 L157.648,24.722 C156.35,24.722 155.788,24.527 155.224,23.425 L152.995,19.04 C152.627,18.354 152.261,18.233 151.353,18.233 L149.737,18.233 L149.737,24.721 L146.529,24.721 L146.529,10.051 L144.937,10.051 L144.937,7.333 L152.725,7.333 C155.91,7.333 158.138,9.292 158.138,12.574 C158.138,15.709 155.984,17.007 155.248,17.153 L155.248,17.202 C155.248,17.202 155.787,17.448 156.104,18.085 L157.794,21.439 C158.063,21.954 158.48,22.002 159.019,22.002 L159.336,22.002 L159.336,24.722 L159.337,24.722 Z M178.022,24.722 L176.111,24.722 C174.887,24.722 174.447,24.405 174.054,23.302 L172.976,20.266 L167.1,20.266 L166.022,23.302 C165.631,24.405 165.214,24.722 163.989,24.722 L162.055,24.722 L162.055,22.004 L162.447,22.004 C162.863,22.004 163.058,21.906 163.206,21.466 L168.374,7.334 L171.728,7.334 L176.872,21.466 C177.019,21.906 177.215,22.004 177.631,22.004 L178.024,22.004 L178.024,24.722 L178.022,24.722 Z M198.274,10.052 L197.221,10.052 C196.877,10.052 196.682,10.248 196.682,10.591 L196.682,24.722 L193.817,24.722 L187.204,15.122 C186.518,14.143 185.759,12.673 185.759,12.673 L185.711,12.673 C185.711,12.673 185.883,14.117 185.883,15.122 L185.883,23.057 C185.883,24.233 185.393,24.722 184.217,24.722 L181.082,24.722 L181.082,22.004 L182.135,22.004 C182.478,22.004 182.674,21.809 182.674,21.466 L182.674,7.334 L185.564,7.334 L192.153,16.959 C192.839,17.963 193.597,19.408 193.597,19.408 L193.645,19.408 C193.645,19.408 193.474,17.963 193.474,16.959 L193.474,9 C193.474,7.848 193.964,7.334 195.14,7.334 L198.275,7.334 L198.275,10.052 L198.274,10.052 Z M216.689,11.645 L213.873,11.645 L213.873,10.591 C213.873,10.248 213.678,10.052 213.335,10.052 L210.664,10.052 L210.664,24.722 L207.457,24.722 L207.457,10.052 L204.787,10.052 C204.444,10.052 204.248,10.248 204.248,10.591 L204.248,11.645 L201.432,11.645 L201.432,8.902 C201.432,7.751 201.825,7.335 203,7.335 L215.122,7.335 C216.298,7.335 216.689,7.751 216.689,8.902 L216.689,11.645 L216.689,11.645 Z M238.181,19.972 C236.491,19.972 235.119,18.602 235.119,16.911 C235.119,15.22 236.49,13.849 238.181,13.849 C239.87,13.849 241.242,15.219 241.242,16.911 C241.241,18.602 239.87,19.972 238.181,19.972 L238.181,19.972 Z" id="Shape"></path>
                        <path d="M152.334,10.052 L149.737,10.052 L149.737,15.489 L152.284,15.489 C153.9,15.489 154.856,14.486 154.856,12.747 C154.856,11.032 153.9,10.052 152.334,10.052 L152.334,10.052 Z" id="Shape"></path>
                    </g>
                </g>
            </g>
        </g>
    </g>
</svg>